<?xml version="1.0" standalone="no"?>
<!DOCTYPE svg PUBLIC "-//W3C//DTD SVG 20010904//EN"
 "http://www.w3.org/TR/2001/REC-SVG-20010904/DTD/svg10.dtd">
<svg version="1.0" xmlns="http://www.w3.org/2000/svg"
 width="512.000000pt" height="512.000000pt" viewBox="0 0 512.000000 512.000000"
 preserveAspectRatio="xMidYMid meet">

<g transform="translate(0.000000,512.000000) scale(0.100000,-0.100000)"
fill="#609513" stroke="none">
<path d="M320 4947 c-49 -16 -133 -102 -148 -153 -17 -60 -17 -2968 0 -3028
16 -55 99 -138 154 -154 23 -7 67 -12 98 -12 l56 0 0 -480 0 -480 -56 0 c-87
0 -133 -18 -189 -75 -71 -70 -91 -145 -63 -239 16 -55 99 -138 154 -154 29 -8
147 -12 396 -12 412 0 420 1 491 80 90 100 90 220 0 320 -51 57 -108 80 -195
80 l-58 0 0 480 0 480 1600 0 1600 0 0 -480 0 -480 -56 0 c-87 0 -133 -18
-189 -75 -71 -70 -91 -145 -63 -239 16 -55 99 -138 154 -154 29 -8 147 -12
396 -12 412 0 420 1 491 80 90 100 90 220 0 320 -51 57 -108 80 -195 80 l-58
0 0 480 0 480 58 0 c87 0 144 23 195 80 24 26 49 66 55 88 17 57 17 2967 0
3024 -6 22 -31 62 -55 88 -79 88 145 80 -2337 79 -1574 -1 -2211 -4 -2236 -12z
m4455 -172 l25 -24 0 -1471 0 -1471 -25 -24 -24 -25 -2191 0 -2191 0 -24 25
-25 24 0 1471 0 1471 25 24 24 25 2191 0 2191 0 24 -25z m-3975 -3655 l0 -480
-80 0 -80 0 0 480 0 480 80 0 80 0 0 -480z m3680 0 l0 -480 -80 0 -80 0 0 480
0 480 80 0 80 0 0 -480z m-3385 -665 c16 -15 25 -36 25 -55 0 -19 -9 -40 -25
-55 l-24 -25 -351 0 -351 0 -24 25 c-16 15 -25 36 -25 55 0 19 9 40 25 55 l24
25 351 0 351 0 24 -25z m3680 0 c16 -15 25 -36 25 -55 0 -19 -9 -40 -25 -55
l-24 -25 -351 0 -351 0 -24 25 c-16 15 -25 36 -25 55 0 19 9 40 25 55 l24 25
351 0 351 0 24 -25z"/>
<path d="M2080 4560 l0 -80 480 0 480 0 0 80 0 80 -480 0 -480 0 0 -80z"/>
<path d="M1760 4240 l0 -80 800 0 800 0 0 80 0 80 -800 0 -800 0 0 -80z"/>
<path d="M665 3815 l-25 -24 0 -671 0 -671 25 -24 24 -25 511 0 511 0 24 25
25 24 0 671 0 671 -25 24 -24 25 -511 0 -511 0 -24 -25z m935 -695 l0 -560
-400 0 -400 0 0 560 0 560 400 0 400 0 0 -560z"/>
<path d="M960 3440 l0 -80 80 0 80 0 0 80 0 80 -80 0 -80 0 0 -80z"/>
<path d="M1280 3440 l0 -80 80 0 80 0 0 80 0 80 -80 0 -80 0 0 -80z"/>
<path d="M960 3120 l0 -80 240 0 240 0 0 80 0 80 -240 0 -240 0 0 -80z"/>
<path d="M960 2800 l0 -80 240 0 240 0 0 80 0 80 -240 0 -240 0 0 -80z"/>
<path d="M2025 3815 l-25 -24 0 -671 0 -671 25 -24 24 -25 511 0 511 0 24 25
25 24 0 671 0 671 -25 24 -24 25 -511 0 -511 0 -24 -25z m935 -695 l0 -560
-400 0 -400 0 0 560 0 560 400 0 400 0 0 -560z"/>
<path d="M2320 3440 l0 -80 240 0 240 0 0 80 0 80 -240 0 -240 0 0 -80z"/>
<path d="M2320 3120 l0 -80 240 0 240 0 0 80 0 80 -240 0 -240 0 0 -80z"/>
<path d="M2320 2800 l0 -80 240 0 240 0 0 80 0 80 -240 0 -240 0 0 -80z"/>
<path d="M3385 3815 l-25 -24 0 -671 0 -671 25 -24 24 -25 511 0 511 0 24 25
25 24 0 671 0 671 -25 24 -24 25 -511 0 -511 0 -24 -25z m935 -695 l0 -560
-400 0 -400 0 0 560 0 560 400 0 400 0 0 -560z"/>
<path d="M3680 3440 l0 -80 80 0 80 0 0 80 0 80 -80 0 -80 0 0 -80z"/>
<path d="M4000 3440 l0 -80 80 0 80 0 0 80 0 80 -80 0 -80 0 0 -80z"/>
<path d="M3680 3120 l0 -80 240 0 240 0 0 80 0 80 -240 0 -240 0 0 -80z"/>
<path d="M3680 2800 l0 -80 80 0 80 0 0 80 0 80 -80 0 -80 0 0 -80z"/>
<path d="M4000 2800 l0 -80 80 0 80 0 0 80 0 80 -80 0 -80 0 0 -80z"/>
<path d="M640 2160 l0 -80 160 0 160 0 0 80 0 80 -160 0 -160 0 0 -80z"/>
<path d="M1120 2160 l0 -80 320 0 320 0 0 80 0 80 -320 0 -320 0 0 -80z"/>
<path d="M2000 2160 l0 -80 80 0 80 0 0 80 0 80 -80 0 -80 0 0 -80z"/>
<path d="M2320 2160 l0 -80 400 0 400 0 0 80 0 80 -400 0 -400 0 0 -80z"/>
<path d="M3360 2160 l0 -80 80 0 80 0 0 80 0 80 -80 0 -80 0 0 -80z"/>
<path d="M3680 2160 l0 -80 80 0 80 0 0 80 0 80 -80 0 -80 0 0 -80z"/>
<path d="M4000 2160 l0 -80 240 0 240 0 0 80 0 80 -240 0 -240 0 0 -80z"/>
</g>
</svg>
