<?xml version="1.0" standalone="no"?>
<!DOCTYPE svg PUBLIC "-//W3C//DTD SVG 20010904//EN"
 "http://www.w3.org/TR/2001/REC-SVG-20010904/DTD/svg10.dtd">
<svg version="1.0" xmlns="http://www.w3.org/2000/svg"
 width="512.000000pt" height="512.000000pt" viewBox="0 0 512.000000 512.000000"
 preserveAspectRatio="xMidYMid meet">

<g transform="translate(0.000000,512.000000) scale(0.100000,-0.100000)"
fill="#609513" stroke="none">
<path d="M450 5060 c-20 -20 -20 -33 -20 -2163 l0 -2144 21 -19 c19 -17 41
-19 260 -22 l239 -3 0 -315 c0 -301 1 -315 20 -334 20 -20 33 -20 1853 -20
l1834 0 21 23 22 23 0 2213 0 2213 -29 29 -29 29 -271 0 -270 0 -3 236 c-3
234 -3 236 -27 255 -23 19 -66 19 -1812 19 -1776 0 -1789 0 -1809 -20z m3490
-310 l0 -180 -1469 0 -1468 0 -27 -21 -26 -20 0 -1830 0 -1829 -185 0 -185 0
0 2023 c0 1113 3 2027 7 2030 3 4 759 7 1680 7 l1673 0 0 -180z m608 -2447
l-3 -2108 -1722 -3 -1723 -2 0 2110 0 2110 1725 0 1725 0 -2 -2107z"/>
<path d="M1356 4069 l-26 -20 0 -735 c0 -721 0 -734 20 -754 20 -20 33 -20
695 -20 662 0 675 0 695 20 20 20 20 33 20 750 l0 731 -25 24 -24 25 -664 0
c-657 0 -665 0 -691 -21z m1249 -764 l0 -620 -560 0 -560 0 -3 610 c-1 336 0
616 3 623 3 10 121 12 562 10 l558 -3 0 -620z"/>
<path d="M2002 3849 c-78 -15 -145 -70 -181 -149 -52 -114 -1 -250 118 -312
161 -84 356 38 354 222 -1 155 -138 267 -291 239z m88 -154 c69 -36 68 -125
-1 -161 -62 -31 -129 11 -129 80 1 78 62 116 130 81z"/>
<path d="M1936 3274 c-170 -41 -308 -192 -338 -369 -15 -92 -7 -122 37 -141
36 -15 71 -8 93 18 6 8 16 44 21 80 15 109 73 193 166 241 56 28 167 35 233
13 100 -33 186 -139 198 -244 10 -85 13 -93 50 -108 42 -18 82 -4 100 36 18
38 0 149 -36 225 -95 198 -310 301 -524 249z"/>
<path d="M3124 3989 c-42 -12 -62 -56 -44 -99 7 -17 21 -35 31 -40 11 -6 240
-10 583 -10 553 0 566 0 586 20 30 30 30 83 -1 115 -19 19 -34 20 -572 22
-314 1 -565 -2 -583 -8z"/>
<path d="M3091 3354 c-28 -35 -26 -69 4 -99 l24 -25 569 0 c533 0 571 1 592
18 31 25 31 89 0 114 -21 17 -60 18 -595 18 l-574 0 -20 -26z"/>
<path d="M3101 2753 c-34 -29 -37 -74 -8 -109 l25 -29 571 0 c557 0 571 0 590
20 31 32 31 85 1 115 -20 20 -33 20 -589 20 -527 0 -570 -1 -590 -17z"/>
<path d="M1356 2059 l-26 -20 0 -733 0 -733 23 -21 23 -22 672 0 c659 0 672 0
692 20 20 20 20 33 20 754 l0 735 -26 20 c-26 21 -34 21 -689 21 -655 0 -663
0 -689 -21z m1249 -764 l0 -620 -560 0 -560 0 -3 610 c-1 336 0 616 3 623 3
10 121 12 562 10 l558 -3 0 -620z"/>
<path d="M1980 1835 c-98 -31 -180 -139 -179 -235 1 -164 158 -284 314 -240
59 16 137 86 160 142 10 24 18 68 18 99 1 160 -162 282 -313 234z m138 -170
c40 -46 26 -112 -29 -141 -62 -32 -129 13 -129 85 0 39 12 61 45 80 31 17 87
5 113 -24z"/>
<path d="M1931 1264 c-171 -46 -306 -196 -333 -371 -14 -89 -6 -121 33 -137
68 -29 104 1 118 97 17 119 78 200 187 248 39 18 61 21 128 17 50 -3 94 -11
114 -22 88 -46 157 -142 168 -234 11 -97 25 -116 87 -114 60 2 80 42 66 139
-14 99 -57 183 -131 257 -118 117 -281 162 -437 120z"/>
<path d="M3119 1979 c-58 -21 -59 -112 -3 -138 31 -14 1110 -16 1147 -2 45 17
54 93 15 127 -19 18 -50 19 -577 21 -344 1 -566 -2 -582 -8z"/>
<path d="M3090 1343 c-26 -33 -21 -79 11 -105 20 -17 63 -18 589 -18 531 0
569 1 590 18 31 25 31 89 0 114 -21 17 -60 18 -595 18 l-574 0 -21 -27z"/>
<path d="M3095 735 c-30 -30 -32 -64 -4 -99 l20 -26 578 0 c538 0 579 1 594
18 27 30 26 83 -3 112 -20 20 -33 20 -590 20 l-571 0 -24 -25z"/>
</g>
</svg>
