<?xml version="1.0" standalone="no"?>
<!DOCTYPE svg PUBLIC "-//W3C//DTD SVG 20010904//EN"
 "http://www.w3.org/TR/2001/REC-SVG-20010904/DTD/svg10.dtd">
<svg version="1.0" xmlns="http://www.w3.org/2000/svg"
 width="512.000000pt" height="512.000000pt" viewBox="0 0 512.000000 512.000000"
 preserveAspectRatio="xMidYMid meet">

<g transform="translate(0.000000,512.000000) scale(0.100000,-0.100000)"
fill="#609513" stroke="none">
<path d="M1470 5111 c-69 -21 -132 -74 -166 -141 -10 -21 -19 -66 -22 -111
l-4 -77 -77 -4 c-51 -3 -90 -12 -117 -26 -53 -27 -117 -100 -132 -150 -9 -29
-12 -432 -12 -1596 l0 -1556 85 0 85 0 0 1549 0 1550 23 27 c20 23 34 28 85
32 l62 4 0 -1581 0 -1581 85 0 85 0 0 1721 0 1721 29 29 29 29 1205 0 1205 0
4 -327 c4 -373 5 -383 88 -456 72 -66 77 -67 395 -67 l285 0 0 -1767 c-1
-1374 -3 -1772 -13 -1784 -7 -9 -22 -21 -34 -27 -33 -18 -3108 -17 -3143 1
-14 7 -32 27 -40 44 l-15 33 -84 0 -84 0 6 -39 c11 -85 67 -158 152 -197 l50
-24 1478 0 1477 0 0 -40 c0 -57 -24 -108 -55 -120 -18 -7 -575 -9 -1627 -8
l-1600 3 -24 28 c-23 28 -24 32 -24 213 l0 184 -85 0 -85 0 0 -194 c0 -210 7
-247 56 -311 15 -20 53 -48 88 -65 l61 -30 1640 2 1640 3 41 22 c90 48 144
145 144 259 l0 52 37 7 c56 10 129 51 157 88 60 79 56 -63 56 1944 l0 1839
-375 419 c-207 231 -391 435 -410 453 l-35 32 -1272 -1 c-700 0 -1284 -4
-1298 -8z m2850 -551 c101 -113 201 -224 224 -247 l40 -43 -217 0 -218 0 -24
25 -25 24 0 243 c0 236 1 242 18 223 10 -11 101 -112 202 -225z"/>
<path d="M1790 4525 l0 -85 85 0 85 0 0 85 0 85 -85 0 -85 0 0 -85z"/>
<path d="M2130 4525 l0 -85 345 0 345 0 0 85 0 85 -345 0 -345 0 0 -85z"/>
<path d="M1790 4185 l0 -85 515 0 516 0 -3 83 -3 82 -512 3 -513 2 0 -85z"/>
<path d="M1790 3495 l0 -85 170 0 170 0 0 85 0 85 -170 0 -170 0 0 -85z"/>
<path d="M2302 3498 l3 -83 1023 -3 1022 -2 0 85 0 85 -1025 0 -1026 0 3 -82z"/>
<path d="M1790 2985 l0 -85 1280 0 1280 0 0 85 0 85 -1280 0 -1280 0 0 -85z"/>
<path d="M1790 2475 l0 -85 1280 0 1280 0 0 85 0 85 -1280 0 -1280 0 0 -85z"/>
<path d="M1790 1965 l0 -85 1280 0 1280 0 0 85 0 85 -1280 0 -1280 0 0 -85z"/>
<path d="M3670 1450 l0 -90 340 0 340 0 0 90 0 90 -340 0 -340 0 0 -90z"/>
<path d="M425 1264 c-99 -35 -165 -131 -165 -238 1 -106 52 -188 145 -232 l50
-24 1405 0 1406 0 224 90 c124 50 233 98 243 108 23 23 25 73 5 104 -11 17
-79 49 -247 116 l-231 92 -1398 -1 c-1186 0 -1403 -3 -1437 -15z m175 -239 l0
-85 -60 0 c-51 0 -65 4 -85 25 -17 16 -25 35 -25 58 0 59 37 86 118 87 l52 0
0 -85z m2470 0 l0 -85 -1150 0 -1150 0 0 85 0 85 1150 0 1150 0 0 -85z m278
32 l82 -33 -90 -36 -90 -36 0 69 c0 38 4 69 8 69 5 0 45 -15 90 -33z"/>
</g>
</svg>
