<?xml version="1.0" standalone="no"?>
<!DOCTYPE svg PUBLIC "-//W3C//DTD SVG 20010904//EN"
 "http://www.w3.org/TR/2001/REC-SVG-20010904/DTD/svg10.dtd">
<svg version="1.0" xmlns="http://www.w3.org/2000/svg"
 width="512.000000pt" height="512.000000pt" viewBox="0 0 512.000000 512.000000"
 preserveAspectRatio="xMidYMid meet">

<g transform="translate(0.000000,512.000000) scale(0.100000,-0.100000)"
fill="#609513" stroke="none">
<path d="M1267 5110 c-58 -15 -135 -57 -181 -101 -43 -39 -98 -130 -110 -181
l-6 -26 -114 -4 c-124 -3 -145 -11 -190 -72 -21 -27 -21 -34 -24 -1104 -2
-974 -1 -1081 14 -1120 9 -24 27 -50 40 -58 l24 -16 2 -1003 c3 -996 3 -1004
24 -1031 44 -60 67 -69 184 -72 l108 -4 4 -107 c3 -101 5 -110 32 -145 54 -71
-74 -66 1700 -64 1603 3 1605 3 1632 24 15 11 37 33 48 48 l21 27 3 2086 c2
2323 8 2124 -66 2181 -32 25 -44 27 -143 30 l-107 4 -4 107 c-3 101 -5 110
-32 145 -51 67 -40 66 -602 66 l-506 0 -19 24 c-45 57 -35 56 -673 56 -551 0
-586 1 -586 18 0 35 -58 139 -104 184 -70 70 -156 109 -252 114 -44 2 -96 -1
-117 -6z m164 -151 c19 -7 49 -23 67 -36 33 -25 92 -98 92 -115 0 -4 -58 -8
-129 -8 -151 0 -175 -10 -175 -74 0 -76 -58 -70 817 -76 l782 -5 0 -1045 0
-1045 -1045 0 -1045 0 -3 1048 -2 1047 85 0 85 0 0 -374 c0 -210 4 -397 10
-427 23 -120 113 -234 227 -286 82 -38 197 -43 284 -14 116 39 209 130 250
245 17 49 19 83 19 278 0 215 -1 225 -24 275 -68 145 -267 175 -377 56 -56
-60 -64 -88 -64 -226 0 -123 1 -130 24 -148 31 -25 69 -24 98 3 21 20 23 30
23 122 0 61 5 111 13 126 27 54 94 63 138 19 19 -19 20 -30 17 -238 l-3 -218
-30 -49 c-99 -159 -338 -149 -428 20 -22 41 -22 45 -22 506 l0 466 25 48 c55
107 182 161 291 125z m2579 -606 c0 -209 1 -218 22 -240 29 -31 72 -30 103 2
21 20 25 34 25 80 l0 55 85 0 85 0 0 -2050 0 -2050 -1570 0 -1570 0 0 85 0 85
1087 2 1088 3 45 27 c25 14 196 179 382 365 319 320 337 341 352 392 14 49 16
198 16 1397 0 963 -3 1350 -11 1367 -11 25 -47 47 -75 47 -8 0 -26 -11 -39
-25 l-25 -24 0 -1341 0 -1340 -302 0 c-338 0 -351 -2 -395 -69 -23 -33 -23
-38 -23 -342 l0 -309 -1210 0 -1210 0 0 965 0 965 998 0 c548 1 1017 5 1041 9
55 11 109 62 121 117 6 22 10 477 10 1042 l0 1002 485 0 485 0 0 -217z m-120
-3316 c0 -1 -101 -103 -225 -227 l-225 -225 0 228 0 227 225 0 c124 0 225 -1
225 -3z"/>
<path d="M2034 4057 c-35 -31 -38 -82 -5 -109 21 -16 45 -18 252 -18 216 0
230 1 249 20 30 30 27 83 -6 109 -25 20 -39 21 -245 21 -214 0 -218 0 -245
-23z"/>
<path d="M2034 3657 c-35 -31 -38 -82 -5 -109 21 -16 45 -18 252 -18 216 0
230 1 249 20 30 30 27 83 -6 109 -25 20 -39 21 -245 21 -214 0 -218 0 -245
-23z"/>
<path d="M1149 3251 c-34 -35 -37 -59 -8 -95 l20 -26 675 0 c661 0 674 0 694
20 27 27 26 81 -1 106 -20 18 -48 19 -686 22 l-664 2 -30 -29z"/>
<path d="M3396 4059 c-33 -26 -36 -79 -6 -109 17 -17 33 -20 126 -20 58 0 114
5 125 11 48 25 44 105 -7 128 -14 6 -67 11 -118 11 -79 0 -97 -3 -120 -21z"/>
<path d="M3396 3659 c-33 -26 -36 -79 -6 -109 18 -18 33 -20 129 -20 120 0
144 10 157 62 5 22 0 33 -24 58 -30 29 -33 30 -130 30 -85 0 -103 -3 -126 -21z"/>
<path d="M3413 3270 c-45 -19 -57 -86 -23 -120 18 -18 33 -20 134 -20 112 0
115 1 135 26 27 35 26 57 -3 91 -23 27 -29 28 -123 30 -54 2 -108 -2 -120 -7z"/>
<path d="M3423 2873 c-50 -10 -70 -86 -33 -123 18 -18 33 -20 134 -20 112 0
115 1 135 26 27 35 26 57 -3 91 -23 27 -29 28 -118 30 -51 0 -103 -1 -115 -4z"/>
<path d="M1221 2124 c-27 -35 -26 -57 3 -91 24 -28 26 -28 136 -28 105 0 113
1 131 24 25 30 24 76 -1 101 -18 18 -33 20 -134 20 -112 0 -115 -1 -135 -26z"/>
<path d="M1785 2130 c-25 -28 -23 -76 4 -103 l22 -22 910 0 911 0 24 28 c29
34 30 56 3 91 l-20 26 -918 0 c-907 0 -918 0 -936 -20z"/>
<path d="M1221 1724 c-29 -36 -26 -60 9 -96 l30 -30 106 4 c97 3 107 5 125 27
25 30 24 76 -1 101 -18 18 -33 20 -134 20 -112 0 -115 -1 -135 -26z"/>
<path d="M1787 1733 c-8 -10 -19 -30 -22 -45 -6 -22 -1 -33 23 -58 l30 -30
902 0 902 0 30 30 c24 25 29 36 23 58 -3 15 -14 35 -22 45 -15 16 -72 17 -933
17 -861 0 -918 -1 -933 -17z"/>
<path d="M1225 1325 c-28 -27 -30 -42 -14 -78 17 -37 50 -47 155 -47 87 0 97
2 119 25 31 30 33 77 5 105 -18 18 -33 20 -130 20 -104 0 -112 -1 -135 -25z"/>
<path d="M1792 1333 c-12 -10 -24 -30 -28 -45 -5 -22 0 -33 24 -58 l30 -30
581 0 580 0 27 23 c35 31 38 82 5 109 -22 17 -55 18 -611 18 -545 0 -589 -1
-608 -17z"/>
</g>
</svg>
