<?xml version="1.0" standalone="no"?>
<!DOCTYPE svg PUBLIC "-//W3C//DTD SVG 20010904//EN"
 "http://www.w3.org/TR/2001/REC-SVG-20010904/DTD/svg10.dtd">
<svg version="1.0" xmlns="http://www.w3.org/2000/svg"
 width="512.000000pt" height="512.000000pt" viewBox="0 0 512.000000 512.000000"
 preserveAspectRatio="xMidYMid meet">

<g transform="translate(0.000000,512.000000) scale(0.100000,-0.100000)"
fill="#609513" stroke="none">
<path d="M1913 3799 c-55 -10 -91 -30 -130 -71 -95 -99 -96 -251 -3 -347 l39
-40 -37 -12 c-75 -24 -172 -82 -230 -138 -67 -66 -131 -164 -139 -216 -5 -30
-1 -39 29 -69 19 -19 52 -39 73 -45 49 -13 831 -15 888 -2 43 10 81 41 103 83
12 24 11 32 -21 95 -64 128 -184 233 -322 283 l-62 22 29 24 c47 40 80 118 80
189 0 159 -140 274 -297 244z"/>
<path d="M3050 3770 c-27 -27 -26 -81 1 -106 20 -18 44 -19 546 -19 l525 0 19
24 c25 30 24 76 -1 101 -19 19 -33 20 -545 20 -512 0 -526 -1 -545 -20z"/>
<path d="M3050 3360 c-11 -11 -20 -33 -20 -50 0 -17 9 -39 20 -50 19 -19 33
-20 545 -20 512 0 526 1 545 20 11 11 20 33 20 50 0 17 -9 39 -20 50 -19 19
-33 20 -545 20 -512 0 -526 -1 -545 -20z"/>
<path d="M1350 2340 c-11 -11 -20 -33 -20 -50 0 -17 9 -39 20 -50 20 -20 33
-20 1395 -20 1362 0 1375 0 1395 20 26 26 26 74 0 100 -20 20 -33 20 -1395 20
-1362 0 -1375 0 -1395 -20z"/>
<path d="M1373 1860 c-46 -19 -57 -83 -20 -118 l23 -22 1370 0 1371 0 21 23
c27 29 28 67 3 98 l-19 24 -1364 2 c-773 1 -1372 -2 -1385 -7z"/>
<path d="M1356 1349 c-19 -15 -26 -30 -26 -54 0 -24 7 -39 26 -54 l27 -21
1362 0 1362 0 27 21 c36 28 36 80 0 108 l-27 21 -1362 0 -1362 0 -27 -21z"/>
<path d="M1352 847 c-27 -29 -28 -67 -3 -98 l19 -24 1377 0 1377 0 19 24 c26
32 24 73 -4 99 l-23 22 -1370 0 -1371 0 -21 -23z"/>
</g>
</svg>
