<?xml version="1.0" standalone="no"?>
<!DOCTYPE svg PUBLIC "-//W3C//DTD SVG 20010904//EN"
 "http://www.w3.org/TR/2001/REC-SVG-20010904/DTD/svg10.dtd">
<svg version="1.0" xmlns="http://www.w3.org/2000/svg"
 width="512.000000pt" height="512.000000pt" viewBox="0 0 512.000000 512.000000"
 preserveAspectRatio="xMidYMid meet">

<g transform="translate(0.000000,512.000000) scale(0.100000,-0.100000)"
fill="#609513" stroke="none">
<path d="M2513 4797 c-23 -7 -566 -208 -1206 -447 l-1164 -435 1238 -5 c1232
-5 1238 -5 1266 -26 43 -32 65 -81 60 -137 -5 -57 -30 -95 -78 -119 -32 -17
-109 -18 -1181 -18 l-1148 0 0 -32 0 -33 228 -84 c125 -46 262 -97 305 -113
l77 -30 0 -531 c0 -298 4 -558 10 -591 50 -308 473 -551 1122 -646 911 -134
1872 95 2111 503 56 94 57 113 57 712 l0 550 373 139 c492 184 489 182 515
238 27 56 27 80 1 136 -18 36 -32 49 -73 68 -87 39 -2408 904 -2440 908 -17 3
-50 0 -73 -7z"/>
</g>
</svg>
