<?xml version="1.0" standalone="no"?>
<!DOCTYPE svg PUBLIC "-//W3C//DTD SVG 20010904//EN"
 "http://www.w3.org/TR/2001/REC-SVG-20010904/DTD/svg10.dtd">
<svg version="1.0" xmlns="http://www.w3.org/2000/svg"
 width="512.000000pt" height="512.000000pt" viewBox="0 0 512.000000 512.000000"
 preserveAspectRatio="xMidYMid meet">

<g transform="translate(0.000000,512.000000) scale(0.100000,-0.100000)"
fill="#609513" stroke="none">
<path d="M2335 5057 c-82 -35 -505 -213 -940 -397 -846 -356 -845 -356 -845
-425 0 -64 17 -74 465 -263 l420 -178 5 -256 c5 -241 6 -258 26 -285 12 -15
35 -32 52 -37 l31 -9 3 -366 c4 -338 6 -372 26 -444 64 -230 211 -433 403
-559 l76 -49 -7 -41 c-9 -47 -36 -87 -76 -110 -16 -9 -235 -78 -488 -152 -553
-164 -626 -197 -776 -347 -115 -115 -196 -255 -241 -415 -20 -71 -23 -109 -27
-363 -3 -221 -1 -289 9 -308 26 -49 51 -53 293 -53 l226 0 31 28 c25 23 32 36
33 71 1 36 -4 47 -32 72 l-32 29 -165 0 -165 0 0 180 c0 222 14 299 77 430 39
81 59 108 137 185 123 123 180 149 558 261 164 48 299 86 301 83 2 -2 38 -96
81 -209 126 -329 135 -349 167 -365 41 -22 70 -18 122 15 l47 30 0 -305 0
-304 -171 -3 -171 -3 -24 -28 c-33 -38 -33 -96 0 -134 l24 -28 1349 -3 c1002
-2 1355 1 1376 9 53 22 57 45 57 312 0 274 -11 367 -60 492 -76 198 -216 363
-400 471 -85 49 -187 83 -705 236 -192 56 -363 112 -379 123 -34 23 -61 66
-69 111 -6 30 -2 34 71 82 82 53 199 165 258 247 51 70 120 218 146 311 20 73
22 106 26 445 l3 366 31 9 c17 5 40 22 52 37 20 27 21 44 26 285 l5 256 335
142 c184 79 338 143 343 143 4 1 7 -111 7 -247 l0 -249 -41 -18 c-57 -26 -117
-88 -147 -153 l-27 -57 -3 -550 c-2 -403 0 -557 9 -578 22 -53 44 -57 319 -57
l252 0 29 30 30 29 -3 568 -3 568 -28 57 c-31 63 -100 131 -153 150 l-34 12 0
343 0 343 -27 29 c-22 22 -244 120 -958 421 -511 216 -943 394 -960 396 -21 3
-74 -14 -180 -59z m957 -478 c431 -182 789 -334 796 -338 8 -4 -113 -61 -301
-140 l-315 -133 -476 146 c-261 80 -482 146 -491 146 -8 0 -229 -66 -490 -146
l-476 -146 -315 133 c-306 129 -315 134 -287 147 52 24 1558 660 1565 661 4 1
359 -148 790 -330z m-458 -625 c171 -52 362 -111 424 -130 l112 -35 0 -174 0
-173 -113 5 c-252 13 -495 -64 -683 -213 -37 -30 -72 -50 -78 -47 -6 4 -31 24
-56 45 -65 54 -190 122 -288 158 -127 46 -245 63 -389 57 l-123 -5 0 174 0
173 53 16 c28 8 216 67 417 129 201 63 376 114 389 115 13 1 164 -42 335 -95z
m1586 -570 c44 -27 60 -64 60 -143 l0 -71 -120 0 -120 0 0 69 c0 54 5 75 23
102 39 58 102 75 157 43z m-2390 -164 c124 -35 239 -102 339 -195 49 -46 98
-86 110 -90 40 -12 73 5 145 74 160 153 324 226 534 238 l102 6 0 -354 c0
-319 -2 -362 -20 -437 -52 -215 -200 -402 -394 -497 -134 -66 -197 -80 -351
-79 -112 1 -141 4 -210 27 -268 89 -465 304 -520 568 -12 54 -15 149 -15 421
l0 351 103 -6 c56 -3 135 -15 177 -27z m2450 -550 l0 -300 -120 0 -120 0 0
300 0 300 120 0 120 0 0 -300z m-2135 -975 c44 -8 116 -14 160 -14 44 0 116 6
160 14 44 8 83 15 87 15 4 0 13 -18 19 -41 l13 -40 -140 -140 -139 -139 -138
137 c-135 135 -138 139 -132 173 7 39 13 50 23 50 4 0 43 -7 87 -15z m-116
-349 l123 -124 -53 -39 c-197 -145 -240 -175 -243 -172 -13 15 -146 381 -142
388 3 5 27 14 53 21 27 6 64 20 83 30 19 11 40 19 45 20 6 0 66 -56 134 -124z
m730 104 c21 -10 59 -24 85 -31 25 -6 49 -15 52 -20 4 -7 -130 -373 -142 -388
-2 -2 -69 45 -149 104 l-147 108 123 123 c68 68 127 124 132 124 4 0 25 -9 46
-20z m644 -196 c372 -109 430 -136 553 -259 78 -77 98 -104 137 -185 63 -131
77 -208 77 -430 l0 -180 -745 0 -745 0 0 305 0 305 47 -30 c52 -33 81 -37 122
-15 32 16 41 35 167 367 44 115 83 208 87 208 5 0 140 -39 300 -86z m-1007
-235 l84 -60 0 -380 0 -379 -175 0 -175 0 0 379 0 380 83 60 c45 33 86 60 90
61 5 0 47 -27 93 -61z"/>
<path d="M2264 2521 c-45 -28 -61 -79 -39 -126 22 -46 76 -92 145 -124 44 -20
70 -25 135 -26 71 0 88 4 147 33 70 34 131 94 142 138 9 36 -18 90 -54 109
-42 22 -83 12 -128 -31 -53 -50 -99 -62 -157 -40 -25 10 -50 27 -56 38 -10 19
-65 48 -91 48 -7 0 -27 -9 -44 -19z"/>
<path d="M1319 171 c-38 -39 -40 -97 -5 -138 20 -23 32 -28 71 -28 39 0 51 5
71 28 55 64 11 167 -71 167 -27 0 -44 -8 -66 -29z"/>
</g>
</svg>
