<?xml version="1.0" standalone="no"?>
<!DOCTYPE svg PUBLIC "-//W3C//DTD SVG 20010904//EN"
 "http://www.w3.org/TR/2001/REC-SVG-20010904/DTD/svg10.dtd">
<svg version="1.0" xmlns="http://www.w3.org/2000/svg"
 width="512.000000pt" height="512.000000pt" viewBox="0 0 512.000000 512.000000"
 preserveAspectRatio="xMidYMid meet">

<g transform="translate(0.000000,512.000000) scale(0.100000,-0.100000)"
fill="#609513" stroke="none">
<path d="M2515 5111 c-11 -5 -29 -19 -40 -31 -19 -21 -20 -36 -20 -275 0 -242
1 -255 21 -282 41 -55 127 -55 168 0 20 27 21 43 24 255 4 236 -2 285 -37 316
-22 20 -87 30 -116 17z"/>
<path d="M749 4371 c-22 -23 -29 -39 -29 -69 0 -48 15 -68 195 -261 167 -178
201 -193 275 -116 28 29 35 44 35 76 0 38 -7 46 -181 219 -177 177 -181 180
-223 180 -34 0 -49 -6 -72 -29z"/>
<path d="M4059 4203 c-116 -115 -180 -186 -184 -204 -10 -45 17 -95 60 -109
69 -23 94 -7 278 178 164 165 167 169 167 211 0 60 -41 101 -101 101 -42 0
-46 -3 -220 -177z"/>
<path d="M2395 4044 c-356 -54 -636 -193 -880 -438 -220 -221 -349 -455 -417
-757 -33 -147 -33 -434 0 -585 76 -351 250 -637 524 -861 124 -101 227 -249
274 -393 14 -46 18 -109 24 -395 6 -326 7 -342 30 -400 17 -43 40 -77 84 -121
96 -95 98 -96 547 -92 l374 3 56 28 c66 32 132 99 162 165 21 44 22 67 28 392
5 282 9 356 23 404 44 150 122 275 239 379 244 217 327 316 420 496 66 126
107 241 139 382 20 90 23 131 23 304 0 173 -3 214 -23 304 -135 601 -568 1034
-1164 1162 -91 20 -387 34 -463 23z m420 -229 c248 -51 460 -162 630 -329 357
-351 484 -860 330 -1323 -81 -243 -194 -403 -437 -616 -176 -155 -308 -392
-340 -614 l-12 -83 -426 2 -425 3 -8 70 c-23 209 -126 415 -284 565 -32 31
-86 80 -121 109 -218 184 -351 411 -413 704 -30 138 -32 364 -5 487 115 527
543 949 1046 1030 41 6 82 13 90 15 37 9 303 -5 375 -20z m175 -3340 c0 -194
-9 -227 -65 -251 -30 -12 -92 -14 -380 -12 l-343 3 -26 24 c-35 33 -46 97 -46
261 l0 140 430 0 430 0 0 -165z"/>
<path d="M2515 3511 c-53 -22 -76 -89 -50 -145 20 -41 46 -53 140 -61 378 -34
666 -322 700 -700 9 -94 20 -120 62 -140 29 -14 43 -15 73 -6 66 20 75 39 73
155 -3 235 -106 460 -293 639 -99 96 -203 162 -328 207 -135 49 -320 74 -377
51z"/>
<path d="M74 2663 c-54 -11 -90 -99 -62 -153 7 -14 29 -33 48 -43 31 -16 61
-17 272 -15 222 3 238 4 265 24 55 41 55 127 0 168 -27 20 -41 21 -265 22
-130 1 -247 0 -258 -3z"/>
<path d="M4554 2663 c-54 -11 -90 -99 -62 -153 7 -14 29 -33 48 -43 31 -16 61
-17 272 -15 222 3 238 4 265 24 55 41 55 127 0 168 -27 20 -41 21 -265 22
-130 1 -247 0 -258 -3z"/>
<path d="M1090 1223 c-8 -3 -95 -85 -192 -182 -176 -174 -178 -176 -178 -219
0 -63 32 -92 102 -92 l53 0 175 175 c168 168 175 176 175 215 0 31 -7 47 -30
70 -30 29 -76 44 -105 33z"/>
<path d="M3933 1214 c-17 -9 -39 -31 -48 -50 -30 -64 -18 -84 164 -266 l166
-168 65 0 c62 0 67 2 83 29 9 16 17 46 17 67 0 35 -10 48 -167 207 -158 159
-204 197 -235 197 -7 0 -27 -8 -45 -16z"/>
</g>
</svg>
