<?xml version="1.0" standalone="no"?>
<!DOCTYPE svg PUBLIC "-//W3C//DTD SVG 20010904//EN"
 "http://www.w3.org/TR/2001/REC-SVG-20010904/DTD/svg10.dtd">
<svg version="1.0" xmlns="http://www.w3.org/2000/svg"
 width="512.000000pt" height="512.000000pt" viewBox="0 0 512.000000 512.000000"
 preserveAspectRatio="xMidYMid meet">

<g transform="translate(0.000000,512.000000) scale(0.100000,-0.100000)"
fill="#609513" stroke="none">
<path d="M1420 5113 c-37 -13 -40 -33 -40 -245 l0 -208 -180 0 c-247 0 -230
18 -230 -255 l0 -205 -178 0 c-144 0 -182 -3 -200 -16 l-22 -15 0 -2069 0
-2069 22 -15 c20 -14 184 -16 1556 -16 1549 0 1562 0 1584 34 4 6 8 104 8 219
l0 207 180 0 c247 0 230 -18 230 255 l0 205 178 0 c144 0 182 3 200 16 l22 15
0 2069 0 2069 -22 15 c-20 14 -184 16 -1558 15 -844 0 -1542 -3 -1550 -6z
m3020 -2098 l0 -1985 -145 0 -145 0 0 1795 c0 1782 0 1795 -20 1815 -20 20
-33 20 -1330 20 l-1310 0 0 170 0 170 1475 0 1475 0 0 -1985z m-1638 1525
l1228 0 0 -1985 0 -1986 -142 3 -143 3 -5 1798 c-5 1766 -5 1799 -24 1813 -17
12 -213 14 -1323 14 l-1303 0 0 177 0 176 242 -6 c133 -4 794 -7 1470 -7z
m826 -2437 l2 -1983 -1475 0 -1475 0 0 1985 0 1985 1473 -2 1472 -3 3 -1982z"/>
<path d="M1042 3697 c-7 -8 -12 -90 -13 -217 -2 -201 -2 -204 21 -222 22 -18
68 -18 1137 -16 1090 3 1115 3 1129 22 11 16 14 62 14 216 0 178 -2 198 -18
213 -17 16 -110 17 -1139 17 -898 0 -1123 -3 -1131 -13z m2178 -217 l0 -120
-1040 0 -1040 0 0 120 0 120 1040 0 1040 0 0 -120z"/>
<path d="M1052 2884 c-24 -17 -30 -62 -10 -82 9 -9 276 -12 1140 -12 l1127 0
11 21 c16 30 4 68 -26 79 -16 6 -442 10 -1122 10 -977 0 -1100 -2 -1120 -16z"/>
<path d="M1052 2424 c-24 -17 -30 -62 -10 -82 9 -9 275 -12 1134 -12 1007 0
1124 2 1138 16 22 21 20 50 -4 74 -20 20 -33 20 -1128 20 -986 0 -1110 -2
-1130 -16z"/>
<path d="M1046 1964 c-19 -18 -21 -65 -4 -82 9 -9 275 -12 1134 -12 1007 0
1124 2 1138 16 22 21 20 50 -4 74 -20 20 -33 20 -1134 20 -1000 0 -1116 -2
-1130 -16z"/>
<path d="M1046 1504 c-19 -18 -21 -65 -4 -82 9 -9 275 -12 1133 -12 1074 0
1123 1 1138 18 22 25 21 48 -3 72 -20 20 -33 20 -1134 20 -1000 0 -1116 -2
-1130 -16z"/>
<path d="M1048 1049 c-21 -12 -24 -69 -6 -87 9 -9 275 -12 1133 -12 1074 0
1123 1 1138 18 21 23 21 41 1 70 l-15 22 -1117 0 c-740 -1 -1123 -4 -1134 -11z"/>
<path d="M1048 589 c-25 -14 -24 -75 1 -89 13 -7 385 -10 1134 -10 1066 0
1115 1 1130 18 22 24 21 55 -1 75 -17 16 -110 17 -1133 17 -738 -1 -1120 -4
-1131 -11z"/>
</g>
</svg>
