<?xml version="1.0" standalone="no"?>
<!DOCTYPE svg PUBLIC "-//W3C//DTD SVG 20010904//EN"
 "http://www.w3.org/TR/2001/REC-SVG-20010904/DTD/svg10.dtd">
<svg version="1.0" xmlns="http://www.w3.org/2000/svg"
 width="512.000000pt" height="512.000000pt" viewBox="0 0 512.000000 512.000000"
 preserveAspectRatio="xMidYMid meet">

<g transform="translate(0.000000,512.000000) scale(0.100000,-0.100000)"
fill="#609513" stroke="none">
<path d="M2378 5104 c-478 -74 -859 -468 -934 -964 -34 -226 1 -443 102 -645
66 -131 87 -155 133 -155 79 0 94 61 38 155 -48 80 -83 167 -109 273 -27 111
-30 320 -5 429 19 84 75 233 87 233 15 0 60 -125 95 -265 39 -158 76 -240 136
-309 105 -119 265 -148 347 -63 57 60 64 110 31 224 -13 43 -19 82 -15 98 4
14 38 58 77 98 88 89 113 134 113 207 1 48 -5 65 -43 128 l-44 72 17 44 c9 24
35 67 57 97 48 63 89 144 89 177 0 33 19 36 127 22 95 -12 183 -34 258 -66 34
-14 36 -16 22 -32 -57 -63 -94 -221 -77 -329 27 -174 128 -246 229 -165 37 30
40 30 172 34 74 2 140 6 148 8 18 6 62 -99 88 -210 28 -116 23 -315 -11 -445
-48 -188 -169 -389 -297 -496 -96 -80 -86 -78 -114 -18 -48 103 -29 196 70
349 67 104 112 202 120 261 14 102 -35 208 -117 251 -79 40 -149 32 -403 -51
-121 -39 -243 -83 -272 -97 -103 -50 -157 -143 -173 -299 -6 -54 -8 -114 -5
-132 3 -18 8 -49 11 -69 6 -43 61 -106 107 -124 52 -21 66 -39 88 -114 25 -84
61 -150 94 -172 45 -29 19 -37 -96 -30 -192 11 -366 69 -512 169 -37 26 -77
47 -90 47 -52 0 -87 -53 -68 -103 11 -30 133 -113 236 -162 632 -300 1426 90
1575 773 41 187 35 381 -16 561 -157 548 -700 894 -1266 805z m22 -160 c0 -4
-24 -41 -53 -83 -68 -95 -84 -127 -97 -187 -15 -67 -5 -115 42 -184 29 -44 38
-65 33 -81 -4 -12 -41 -58 -82 -102 -42 -44 -84 -99 -94 -121 -24 -53 -24
-119 1 -191 35 -101 23 -121 -54 -87 -80 36 -123 116 -176 330 -36 146 -59
205 -105 278 -19 30 -35 59 -35 64 0 21 169 178 245 228 83 54 188 103 277
126 57 16 98 20 98 10z m782 -200 c38 -30 94 -86 124 -122 l55 -67 -128 -5
c-95 -4 -136 -10 -160 -23 -18 -9 -34 -17 -36 -17 -12 0 -14 105 -3 158 11 53
55 132 73 132 3 0 37 -25 75 -56z m-89 -773 c13 -5 30 -24 37 -41 20 -48 1
-106 -75 -232 -36 -58 -80 -137 -98 -175 -30 -63 -32 -75 -32 -173 1 -97 3
-110 33 -173 l31 -68 -24 -9 c-14 -6 -36 -14 -50 -20 -19 -7 -32 -5 -57 9 -18
10 -54 27 -80 36 -68 25 -90 52 -116 140 -31 104 -61 146 -131 184 -53 28 -59
34 -63 68 -8 60 7 194 27 236 25 53 69 75 300 150 263 85 257 84 298 68z"/>
<path d="M4344 4851 c-28 -12 -61 -57 -109 -147 -36 -68 -40 -72 -129 -121
-101 -55 -136 -94 -136 -152 0 -59 27 -89 130 -146 l95 -53 56 -98 c41 -72 64
-102 89 -116 82 -43 134 -14 209 116 l56 98 94 52 c101 56 131 91 131 152 0
53 -37 93 -137 148 l-92 51 -48 88 c-26 49 -58 98 -70 109 -25 23 -104 34
-139 19z m101 -243 c41 -73 65 -96 171 -154 l39 -22 -33 -18 c-127 -70 -134
-77 -176 -156 -23 -43 -43 -78 -46 -78 -3 0 -24 36 -48 80 -41 76 -46 82 -117
121 -41 22 -77 45 -80 50 -3 4 18 20 47 35 85 42 115 70 154 144 20 39 39 70
43 70 3 0 24 -33 46 -72z"/>
<path d="M633 3611 c-20 -13 -47 -50 -80 -110 l-48 -90 -90 -49 c-105 -58
-130 -86 -130 -147 0 -62 27 -92 131 -149 l90 -49 44 -85 c57 -107 85 -132
151 -132 63 0 93 27 152 135 43 78 46 81 133 130 96 55 134 97 134 150 0 52
-37 93 -135 149 -88 50 -90 53 -135 133 -25 45 -55 92 -67 104 -31 31 -108 37
-150 10z m110 -231 c40 -73 59 -91 145 -134 30 -15 51 -30 48 -33 -3 -4 -38
-25 -77 -47 -66 -37 -76 -48 -112 -113 -23 -40 -43 -73 -46 -73 -4 0 -23 31
-44 70 -40 73 -59 91 -146 135 l-55 27 60 33 c88 49 106 66 144 139 19 36 37
66 40 66 3 0 23 -31 43 -70z"/>
<path d="M2510 2347 c-25 -12 -51 -48 -114 -156 -27 -47 -42 -60 -116 -101
-122 -67 -153 -123 -115 -204 14 -30 70 -69 172 -120 23 -12 45 -41 84 -112
59 -106 81 -124 152 -124 61 0 87 24 143 129 l48 87 86 47 c47 25 94 55 104
66 27 30 35 82 20 127 -15 45 -33 59 -132 111 -72 37 -74 40 -128 136 -59 103
-86 127 -146 127 -18 0 -44 -6 -58 -13z m105 -247 c28 -55 52 -77 133 -122
l63 -35 -78 -44 c-73 -41 -81 -49 -122 -122 l-44 -78 -32 58 c-50 94 -55 99
-133 144 l-75 42 37 21 c107 60 121 72 161 145 44 81 43 81 90 -9z"/>
<path d="M1005 2115 c-27 -26 -31 -54 -15 -85 6 -10 205 -166 443 -346 237
-179 439 -333 447 -341 22 -21 -34 5 -410 189 -591 290 -796 388 -812 388 -8
0 -27 -9 -42 -21 -29 -23 -36 -73 -14 -102 7 -9 269 -140 583 -293 314 -152
572 -279 575 -281 3 -3 -4 -3 -15 0 -1077 301 -1296 358 -1329 347 -18 -6 -42
-20 -51 -30 -10 -11 -37 -84 -60 -163 l-41 -142 -50 -6 c-68 -9 -118 -34 -158
-80 -87 -102 -68 -249 43 -328 28 -20 234 -81 274 -81 26 0 67 45 67 73 0 48
-30 68 -146 98 -115 30 -144 49 -144 96 0 28 41 73 67 73 43 -1 2126 -540
2143 -555 10 -9 23 -42 29 -75 14 -70 40 -106 95 -131 52 -24 100 -24 152 0
55 25 81 61 95 131 6 33 19 66 29 75 10 9 206 64 441 124 233 60 708 181 1055
270 347 88 639 161 648 161 25 0 66 -46 66 -73 0 -61 32 -51 -1048 -327 -558
-143 -1020 -264 -1028 -271 -8 -6 -26 -38 -40 -70 -31 -68 -94 -131 -162 -162
-66 -30 -198 -30 -263 0 -69 31 -127 89 -165 165 -20 40 -44 73 -57 78 -12 5
-164 45 -337 89 -173 44 -501 127 -728 185 -227 59 -424 106 -437 106 -57 0
-88 -86 -46 -124 12 -11 283 -85 738 -202 395 -101 719 -184 720 -184 0 0 14
-24 31 -53 91 -161 295 -259 482 -230 139 22 276 114 342 230 24 43 37 55 66
62 21 6 251 64 512 131 1217 310 1417 363 1448 377 66 31 122 122 122 198 0
78 -56 167 -126 200 -21 10 -60 20 -88 24 l-50 6 -41 142 c-64 218 -74 224
-292 163 -81 -23 -156 -48 -165 -57 -24 -22 -23 -78 2 -103 27 -27 56 -25 180
9 57 17 105 29 106 28 7 -7 64 -220 61 -223 -2 -3 -44 -15 -93 -28 -183 -49
-1830 -469 -1854 -473 -23 -4 -28 3 -62 86 -32 79 -34 91 -20 95 9 3 321 89
692 191 371 102 693 192 716 201 39 14 64 45 64 78 0 27 -41 66 -70 66 -15 0
-182 -43 -371 -95 -188 -52 -343 -94 -345 -92 -1 1 256 128 572 282 317 153
580 287 585 296 18 34 10 77 -17 98 -15 12 -34 21 -43 21 -9 0 -270 -124 -581
-276 -612 -299 -663 -323 -640 -301 8 8 210 161 447 341 238 180 437 335 443
346 16 31 12 59 -15 85 -49 50 64 130 -1397 -977 l-158 -119 -352 267 c-524
396 -718 543 -935 707 -127 95 -204 147 -220 147 -13 0 -35 -11 -48 -25z
m-250 -774 c138 -38 570 -158 960 -266 391 -108 717 -198 727 -201 14 -4 12
-16 -20 -94 -21 -49 -41 -90 -46 -90 -18 0 -1955 496 -1962 503 -3 2 9 55 27
116 26 89 35 110 48 106 9 -2 129 -36 266 -74z m1837 -695 c22 -55 23 -66 12
-87 -7 -13 -13 -36 -14 -51 0 -39 -10 -58 -30 -58 -20 0 -30 19 -30 58 -1 15
-7 38 -14 51 -11 21 -10 32 12 87 14 35 28 64 32 64 4 0 18 -29 32 -64z"/>
</g>
</svg>
